<svg
  xmlns="http://www.w3.org/2000/svg" width="18.181" height="17.896" viewBox="0 0 18.181 17.896">
  <g id="conversation" transform="translate(0 -4.011)">
    <g id="Gruppe_17052" data-name="Gruppe 17052" transform="translate(0 12.603)">
      <g id="Gruppe_17051" data-name="Gruppe 17051" transform="translate(0)">
        <path id="Pfad_15425" data-name="Pfad 15425" d="M4.023,251.3a8.7,8.7,0,0,1-2.578-5.334,5.556,5.556,0,0,0-1.2,3.471,5.62,5.62,0,0,0,.54,2.393l-.727,2.117A1,1,0,0,0,1,255.266a1.006,1.006,0,0,0,.328-.055l2.117-.727a5.62,5.62,0,0,0,2.393.54,5.558,5.558,0,0,0,3.528-1.249A8.71,8.71,0,0,1,4.023,251.3Z" transform="translate(0 -245.961)" fill="#fff"/>
      </g>
    </g>
    <g id="Gruppe_17054" data-name="Gruppe 17054" transform="translate(2.48 4.011)">
      <g id="Gruppe_17053" data-name="Gruppe 17053" transform="translate(0 0)">
        <path id="Pfad_15426" data-name="Pfad 15426" d="M85.477,18.138l-1.056-3.073A7.688,7.688,0,0,0,77.646,4.012a7.68,7.68,0,1,0-.124,15.358h.012a7.7,7.7,0,0,0,3.362-.78l3.073,1.056a1.2,1.2,0,0,0,.389.065,1.189,1.189,0,0,0,1.119-1.574Zm-7.214-3.782H74.3a.541.541,0,0,1,0-1.082h3.965a.541.541,0,0,1,0,1.082Zm2.482-2.225H74.3a.541.541,0,1,1,0-1.082h6.447a.541.541,0,0,1,0,1.082Zm0-2.225H74.3a.541.541,0,1,1,0-1.082h6.447a.541.541,0,0,1,0,1.082Z" transform="translate(-69.842 -4.011)" fill="#fff"/>
      </g>
    </g>
  </g>
</svg>