<svg
  xmlns="http://www.w3.org/2000/svg" width="13.933" height="12.648" viewBox="0 0 13.933 12.648">
  <g id="Gruppe_17107" data-name="Gruppe 17107" transform="translate(-14.113 -13.642)">
    <path id="Pfad_300" data-name="Pfad 300" d="M11.04,23.224H6.694a1.038,1.038,0,0,0-.734.3L.3,29.184a1.038,1.038,0,0,0,0,1.468L4.65,35a1.038,1.038,0,0,0,1.468,0l5.657-5.656a1.041,1.041,0,0,0,.3-.735V24.262A1.038,1.038,0,0,0,11.04,23.224ZM9.224,26.857A.778.778,0,1,1,10,26.078.779.779,0,0,1,9.224,26.857Z" transform="translate(14.113 -9.582)" fill="#fff"/>
    <path id="Pfad_301" data-name="Pfad 301" d="M225,55.224v4.831a.9.9,0,0,1-.265.638l-5.748,5.748.088.088a1.038,1.038,0,0,0,1.468,0l5.191-5.19a1.037,1.037,0,0,0,.3-.734V56.262A1.038,1.038,0,0,0,225,55.224Z" transform="translate(-197.993 -40.544)" fill="#fff"/>
  </g>
</svg>
