<svg xmlns="http://www.w3.org/2000/svg" width="17.21" height="17.209" viewBox="0 0 17.21 17.209">
  <g id="name_tag" transform="translate(-4 -4.001)">
    <path id="Pfad_15432" data-name="Pfad 15432" d="M16.191,18.343H9.02a2.154,2.154,0,0,1-2.151-2.151V9.021A2.154,2.154,0,0,1,9.02,6.869H16.19a2.154,2.154,0,0,1,2.151,2.151v7.171A2.153,2.153,0,0,1,16.191,18.343ZM4.717,8.3a.717.717,0,0,0,.717-.717V6.152a.718.718,0,0,1,.717-.717H7.585A.717.717,0,0,0,7.585,4H6.151A2.154,2.154,0,0,0,4,6.152V7.586A.717.717,0,0,0,4.717,8.3ZM19.059,4H17.625a.717.717,0,1,0,0,1.434h1.434a.718.718,0,0,1,.717.717V7.586a.717.717,0,0,0,1.434,0V6.152A2.154,2.154,0,0,0,19.059,4ZM7.585,19.776H6.151a.718.718,0,0,1-.717-.717V17.625a.717.717,0,1,0-1.434,0v1.434A2.154,2.154,0,0,0,6.151,21.21H7.585a.717.717,0,0,0,0-1.434Zm12.907-2.868a.716.716,0,0,0-.717.717v1.434a.717.717,0,0,1-.717.717H17.625a.717.717,0,1,0,0,1.434h1.434a2.154,2.154,0,0,0,2.151-2.151V17.625A.716.716,0,0,0,20.493,16.908Z" fill="#fff"/>
  </g>
</svg>