<svg
  xmlns="http://www.w3.org/2000/svg" width="240" height="240" viewBox="0 0 240 240">
  <g id="Gruppe_26" data-name="Gruppe 26" transform="translate(-1543 -263)">
    <rect id="Rechteck_25" data-name="Rechteck 25" width="240" height="240" rx="56" transform="translate(1783 503) rotate(180)" fill="#193f43"/>
    <g id="Gruppe_23" data-name="Gruppe 23" transform="translate(1586.439 306.453)">
      <circle id="Ellipse_4" data-name="Ellipse 4" cx="14.155" cy="14.155" r="14.155" transform="translate(0 134.245) rotate(-83.677)" fill="#fff"/>
      <circle id="Ellipse_5" data-name="Ellipse 5" cx="14.155" cy="14.155" r="14.155" transform="matrix(0.11, -0.994, 0.994, 0.11, 122.555, 134.3)" fill="#fff"/>
      <circle id="Ellipse_6" data-name="Ellipse 6" cx="14.155" cy="14.155" r="14.155" transform="matrix(0.11, -0.994, 0.994, 0.11, 61.325, 28.137)" fill="#fff"/>
      <path id="Pfad_71" data-name="Pfad 71" d="M213.512,115.306A24.348,24.348,0,0,1,218,116.8a47.191,47.191,0,0,0-28.639-42.1,18.917,18.917,0,0,1-2.746,14.384,33.016,33.016,0,0,1,17.238,28.084A11.944,11.944,0,0,1,213.512,115.306Z" transform="translate(-93.907 -63)" fill="#fff"/>
      <path id="Pfad_72" data-name="Pfad 72" d="M207.951,137.122a7.42,7.42,0,0,1,8.935-5.5c1.965.467,4.38,1.334,5.288,2.971s.7,3.942.216,5.965a7.42,7.42,0,1,1-14.438-3.432Z" transform="translate(-98.334 -74.88)" fill="#fff"/>
      <path id="Pfad_73" data-name="Pfad 73" d="M116.445,145.02a7.42,7.42,0,0,1-9.233-4.985c-.577-1.934-1.033-4.46-.071-6.065s3.066-2.574,5.058-3.169a7.42,7.42,0,1,1,4.247,14.219Z" transform="translate(-77.143 -74.686)" fill="#fff"/>
      <path id="Pfad_74" data-name="Pfad 74" d="M143.223,235.382a12.342,12.342,0,0,1-3.868-9.429,33.028,33.028,0,0,1-32.309-1.709,18.42,18.42,0,0,1-11.157,9.451,47.2,47.2,0,0,0,50.76,4.43A24.556,24.556,0,0,1,143.223,235.382Z" transform="translate(-74.903 -94.325)" fill="#fff"/>
      <path id="Pfad_75" data-name="Pfad 75" d="M169.644,219.589a7.42,7.42,0,0,1,.3,10.49c-1.387,1.467-3.345,3.125-5.217,3.094s-3.761-1.368-5.273-2.8a7.42,7.42,0,1,1,10.191-10.788Z" transform="translate(-87.731 -92.926)" fill="#fff"/>
      <path id="Pfad_76" data-name="Pfad 76" d="M135.276,78.61a18.957,18.957,0,0,1,.414-3.933,47.2,47.2,0,0,0-28.672,41.564,23.911,23.911,0,0,1,3.952-1.541,12,12,0,0,1,10.22,1.593,33.021,33.021,0,0,1,17.231-27.23A18.816,18.816,0,0,1,135.276,78.61Z" transform="translate(-77.234 -62.995)" fill="#fff"/>
      <path id="Pfad_77" data-name="Pfad 77" d="M76.461,182.115a18.341,18.341,0,0,1,10.4-2.426,33.025,33.025,0,0,1,15.311-29.209,11.989,11.989,0,0,1-6.471-7.466,24.546,24.546,0,0,1-.951-4.589,47.2,47.2,0,0,0-21.659,46.187A18.46,18.46,0,0,1,76.461,182.115Z" transform="translate(-70.041 -76.348)" fill="#fff"/>
      <path id="Pfad_78" data-name="Pfad 78" d="M220.014,232.169a18.418,18.418,0,0,1-7.33-7.821,33.025,33.025,0,0,1-32.4,1.541,12.335,12.335,0,0,1-3.365,9.015,24.942,24.942,0,0,1-3.7,3.275,47.2,47.2,0,0,0,50.6-4.349A18.523,18.523,0,0,1,220.014,232.169Z" transform="translate(-91.102 -94.347)" fill="#fff"/>
      <path id="Pfad_79" data-name="Pfad 79" d="M230.908,138.462a23,23,0,0,1-.657,4.619,11.945,11.945,0,0,1-6.127,7.853,33.028,33.028,0,0,1,14.653,28.729,18.5,18.5,0,0,1,13.777,4.916A47.2,47.2,0,0,0,230.908,138.462Z" transform="translate(-101.765 -76.356)" fill="#fff"/>
    </g>
  </g>
</svg>
