<svg xmlns="http://www.w3.org/2000/svg" width="40" height="40.027" viewBox="0 0 40 40.027">
  <g id="Gruppe_17105" data-name="Gruppe 17105" transform="translate(-24 -125)">
    <path id="Pfad_1847" data-name="Pfad 1847" d="M1254.739,1356.85h0a99.1,99.1,0,0,1-17.41.071l-.844-.071a10.248,10.248,0,0,1-10.248-10.248h0a109.234,109.234,0,0,1,0-18.692v-.01a10.248,10.248,0,0,1,10.248-10.248l.389-.033a106.963,106.963,0,0,1,18.313.033h0a10.248,10.248,0,0,1,10.248,10.248h0a109.313,109.313,0,0,1,0,18.7v0h0A10.834,10.834,0,0,1,1254.739,1356.85Z" transform="translate(-1201.836 -1192.242)" fill="#fff"/>
    <circle id="Ellipse_4" data-name="Ellipse 4" cx="2.3" cy="2.3" r="2.3" transform="translate(31.698 154.633) rotate(-83.677)" fill="#0f282b"/>
    <circle id="Ellipse_5" data-name="Ellipse 5" cx="2.3" cy="2.3" r="2.3" transform="matrix(0.11, -0.994, 0.994, 0.11, 51.615, 154.642)" fill="#0f282b"/>
    <circle id="Ellipse_6" data-name="Ellipse 6" cx="2.3" cy="2.3" r="2.3" transform="matrix(0.11, -0.994, 0.994, 0.11, 41.664, 137.389)" fill="#0f282b"/>
    <path id="Pfad_71" data-name="Pfad 71" d="M190.983,81.3a3.957,3.957,0,0,1,.729.242,7.669,7.669,0,0,0-4.654-6.841,3.074,3.074,0,0,1-.446,2.338,5.366,5.366,0,0,1,2.8,4.564A1.941,1.941,0,0,1,190.983,81.3Z" transform="translate(-139.847 60.017)" fill="#0f282b"/>
    <path id="Pfad_72" data-name="Pfad 72" d="M207.782,132.343a1.206,1.206,0,0,1,1.452-.894,1.341,1.341,0,0,1,.859.483,1.419,1.419,0,0,1,.035.969,1.206,1.206,0,1,1-2.346-.558Z" transform="translate(-158.269 10.588)" fill="#0f282b"/>
    <path id="Pfad_73" data-name="Pfad 73" d="M108.185,132.85a1.206,1.206,0,0,1-1.5-.81,1.343,1.343,0,0,1-.012-.986,1.419,1.419,0,0,1,.822-.515,1.206,1.206,0,1,1,.69,2.311Z" transform="translate(-70.1 11.396)" fill="#0f282b"/>
    <path id="Pfad_74" data-name="Pfad 74" d="M103.582,226.053a2.006,2.006,0,0,1-.629-1.532,5.368,5.368,0,0,1-5.251-.278,2.993,2.993,0,0,1-1.813,1.536,7.671,7.671,0,0,0,8.249.72A3.992,3.992,0,0,1,103.582,226.053Z" transform="translate(-60.781 -70.313)" fill="#0f282b"/>
    <path id="Pfad_75" data-name="Pfad 75" d="M159.162,217.892a1.206,1.206,0,0,1,.049,1.7,1.342,1.342,0,0,1-.848.5,1.42,1.42,0,0,1-.857-.454,1.206,1.206,0,1,1,1.656-1.753Z" transform="translate(-114.152 -64.491)" fill="#0f282b"/>
    <path id="Pfad_76" data-name="Pfad 76" d="M111.611,75.316a3.08,3.08,0,0,1,.067-.639,7.67,7.67,0,0,0-4.66,6.755,3.887,3.887,0,0,1,.642-.25,1.949,1.949,0,0,1,1.661.259,5.367,5.367,0,0,1,2.8-4.425A3.058,3.058,0,0,1,111.611,75.316Z" transform="translate(-70.48 60.037)" fill="#0f282b"/>
    <path id="Pfad_77" data-name="Pfad 77" d="M73.295,145.525a2.981,2.981,0,0,1,1.69-.394,5.367,5.367,0,0,1,2.488-4.747,1.948,1.948,0,0,1-1.052-1.213,3.989,3.989,0,0,1-.155-.746,7.671,7.671,0,0,0-3.52,7.506A3,3,0,0,1,73.295,145.525Z" transform="translate(-40.554 4.48)" fill="#0f282b"/>
    <path id="Pfad_78" data-name="Pfad 78" d="M180.825,225.619a2.993,2.993,0,0,1-1.191-1.271,5.367,5.367,0,0,1-5.266.25,2,2,0,0,1-.547,1.465,4.055,4.055,0,0,1-.6.532,7.671,7.671,0,0,0,8.224-.707A3.011,3.011,0,0,1,180.825,225.619Z" transform="translate(-128.177 -70.405)" fill="#0f282b"/>
    <path id="Pfad_79" data-name="Pfad 79" d="M225.227,138.462a3.738,3.738,0,0,1-.107.751,1.941,1.941,0,0,1-1,1.276,5.368,5.368,0,0,1,2.381,4.669,3.007,3.007,0,0,1,2.239.8A7.671,7.671,0,0,0,225.227,138.462Z" transform="translate(-172.542 4.447)" fill="#0f282b"/>
    </g>
  </svg>